<svg width="120" height="25" viewBox="0 0 120 25" fill="none" xmlns="http://www.w3.org/2000/svg">
<path d="M15.3756 24.5H12.2436V19.478C12.2436 17.768 11.6676 16.913 10.5156 16.913C10.1196 16.913 9.75061 17.066 9.40861 17.372C9.08461 17.678 8.77861 18.056 8.49062 18.506C8.20262 18.938 7.87862 19.379 7.51861 19.829C7.17661 20.279 6.70861 20.657 6.11461 20.963C5.53861 21.269 4.87261 21.422 4.11661 21.422C3.46861 21.422 2.80261 21.305 2.11861 21.071V18.452C2.65861 18.614 3.18061 18.695 3.68461 18.695C4.04461 18.695 4.38661 18.596 4.71061 18.398C5.03461 18.2 5.27761 17.993 5.43961 17.777C5.61961 17.561 5.86261 17.228 6.16861 16.778C6.47461 16.328 6.70861 16.004 6.87061 15.806C6.65461 14.456 6.14161 13.421 5.33161 12.701C4.53961 11.981 3.51361 11.621 2.25361 11.621V9.245H0.633614V6.68H17.9676V9.245H15.3756V24.5ZM9.86762 14.213C10.9476 14.213 11.7396 14.573 12.2436 15.293V9.245H5.22361C6.32161 9.677 7.23061 10.334 7.95061 11.216C8.67061 12.098 9.15661 13.106 9.40861 14.24C9.51661 14.222 9.66962 14.213 9.86762 14.213ZM25.1648 9.245H22.5998V24.5H19.4678V9.245H16.8758V6.68H19.4678V5.627C19.4678 3.773 20.0348 2.378 21.1688 1.442C22.3028 0.487999 23.9408 0.0109982 26.0828 0.0109982C28.4768 0.0109982 30.8528 0.451998 33.2108 1.334V3.764C30.8348 2.972 28.5218 2.576 26.2718 2.576C24.9758 2.576 24.0398 2.828 23.4638 3.332C22.9058 3.836 22.6268 4.601 22.6268 5.627V6.68H25.1648V9.245ZM42.407 9.245H39.275V24.5H36.116V22.07C36.116 20.648 35.756 19.532 35.036 18.722C34.334 17.894 33.335 17.48 32.039 17.48C31.193 17.48 30.518 17.678 30.014 18.074C29.528 18.452 29.285 18.992 29.285 19.694C29.285 20.396 29.51 20.927 29.96 21.287C30.428 21.629 31.022 21.8 31.742 21.8C32.174 21.8 32.579 21.773 32.957 21.719V24.338C32.417 24.446 31.823 24.5 31.175 24.5C29.681 24.5 28.457 24.086 27.503 23.258C26.567 22.43 26.099 21.233 26.099 19.667C26.099 18.479 26.423 17.48 27.071 16.67C27.719 15.86 28.592 15.302 29.69 14.996C29.528 13.844 29.123 12.998 28.475 12.458C27.845 11.9 26.945 11.621 25.775 11.621V9.245H24.074V6.68H42.407V9.245ZM36.116 16.913V9.245H28.718C29.852 9.713 30.752 10.442 31.418 11.432C32.084 12.404 32.498 13.52 32.66 14.78C34.244 14.996 35.396 15.707 36.116 16.913ZM49.238 9.245H46.673V24.5H43.541V9.245H40.949V6.68H43.541V5.627C43.541 3.773 44.108 2.378 45.242 1.442C46.376 0.487999 48.014 0.0109982 50.156 0.0109982C52.55 0.0109982 54.926 0.451998 57.284 1.334V3.764C54.908 2.972 52.595 2.576 50.345 2.576C49.049 2.576 48.113 2.828 47.537 3.332C46.979 3.836 46.7 4.601 46.7 5.627V6.68H49.238V9.245ZM65.4813 16.103C65.4813 18.281 64.7973 20.081 63.4293 21.503C62.0613 22.925 60.2073 23.636 57.8673 23.636C55.4013 23.636 53.4303 22.826 51.9543 21.206C50.4963 19.586 49.7673 17.3 49.7673 14.348C49.7673 13.484 49.8123 12.737 49.9023 12.107H52.8993C52.8273 12.737 52.7913 13.475 52.7913 14.321C52.7913 16.301 53.2233 17.903 54.0873 19.127C54.9693 20.333 56.2293 20.936 57.8673 20.936C59.3073 20.936 60.4053 20.495 61.1613 19.613C61.9353 18.713 62.3223 17.543 62.3223 16.103C62.3223 15.221 62.1693 14.51 61.8633 13.97C61.5753 13.43 61.1163 13.16 60.4863 13.16C59.9643 13.16 59.5593 13.349 59.2713 13.727C58.9833 14.105 58.8393 14.609 58.8393 15.239C58.8393 15.833 58.9383 16.472 59.1363 17.156H56.2203C55.9503 16.526 55.8153 15.824 55.8153 15.05C55.8153 13.772 56.2203 12.71 57.0303 11.864C57.8403 11.018 58.9563 10.595 60.3783 10.595C61.9083 10.595 63.1413 11.135 64.0773 12.215C65.0133 13.277 65.4813 14.573 65.4813 16.103ZM67.2363 9.245H48.1473V6.68H67.2363V9.245ZM80.9848 24.689C80.8228 24.725 80.5348 24.743 80.1208 24.743C78.3388 24.743 76.9888 24.068 76.0708 22.718C75.1528 21.35 74.6758 19.496 74.6398 17.156C74.6218 15.698 74.7118 14.384 74.9098 13.214C75.1078 12.026 75.4408 10.928 75.9088 9.92C76.3768 8.894 77.0518 8.102 77.9338 7.544C78.8338 6.968 79.9138 6.68 81.1738 6.68H81.8758V9.245H81.2278C80.4898 9.245 79.8688 9.47 79.3648 9.92C78.8608 10.352 78.4918 10.982 78.2578 11.81C78.0238 12.638 77.8618 13.466 77.7718 14.294C77.6998 15.104 77.6638 16.058 77.6638 17.156C77.6638 20.378 78.5818 21.989 80.4178 21.989C80.6878 21.989 80.8768 21.98 80.9848 21.962V24.689ZM95.5319 24.5H92.3999V19.478C92.3999 17.768 91.8239 16.913 90.6719 16.913C90.2759 16.913 89.9069 17.066 89.5649 17.372C89.2409 17.678 88.9349 18.056 88.6469 18.506C88.3589 18.938 88.0349 19.379 87.6749 19.829C87.3329 20.279 86.8649 20.657 86.2709 20.963C85.6949 21.269 85.0289 21.422 84.2729 21.422C83.6249 21.422 82.9589 21.305 82.2749 21.071V18.452C82.8149 18.614 83.3369 18.695 83.8409 18.695C84.2009 18.695 84.5429 18.596 84.8669 18.398C85.1909 18.2 85.4339 17.993 85.5959 17.777C85.7759 17.561 86.0189 17.228 86.3249 16.778C86.6309 16.328 86.8649 16.004 87.0269 15.806C86.8109 14.456 86.2979 13.421 85.4879 12.701C84.6959 11.981 83.6699 11.621 82.4099 11.621V9.245H80.7899V6.68H98.1239V9.245H95.5319V24.5ZM90.0239 14.213C91.1039 14.213 91.8959 14.573 92.3999 15.293V9.245H85.3799C86.4779 9.677 87.3869 10.334 88.1069 11.216C88.8269 12.098 89.3129 13.106 89.5649 14.24C89.6729 14.222 89.8259 14.213 90.0239 14.213ZM112.53 9.245H109.965V24.5H106.914V24.473L106.887 24.5L98.6251 18.56V15.428C101.253 13.178 104.016 11.666 106.914 10.892V9.245H97.0321V6.68H112.53V9.245ZM106.914 21.098V13.862C104.898 14.618 103.062 15.662 101.406 16.994L106.914 21.098ZM119.744 9.245H117.179V24.5H114.047V11.108C114.047 10.406 113.939 9.92 113.723 9.65C113.507 9.38 113.093 9.245 112.481 9.245H111.455V6.68H112.832C113.534 6.68 114.056 7.031 114.398 7.733C114.218 6.725 114.128 5.843 114.128 5.087V4.493H117.179V6.68H119.744V9.245Z" fill="url(#paint0_linear_1_3)"/>
<defs>
<linearGradient id="paint0_linear_1_3" x1="60.6736" y1="-5.5" x2="60.6736" y2="38.5" gradientUnits="userSpaceOnUse">
<stop offset="0.46875" stop-color="#5E00D7"/>
<stop offset="1" stop-color="#FF000F" stop-opacity="0.58"/>
</linearGradient>
</defs>
</svg>
